      <svg version="1.0" xmlns="http://www.w3.org/2000/svg" viewBox="0 0 16000 9000" preserveAspectRatio="xMidYMid meet" class="map" style="  opacity: 0.9;  width: 1600px;  height:900px;">
<style>
.map {
  opacity: 0.9;
  width: 1600px;
  height:900px;
}

g {
  fill: #FFF;
  /*stroke: #F00;*/
  /*stroke-width: 20px;*/
  stroke-opacity: 0.9;
}

path {
  cursor: pointer;
  opacity: 0.01;
}

path:hover {
  /*stroke-opacity: 1;*/
  /*fill: #F00;*/
  opacity: 0.14;
}
</style>

        <g id="layer1">
          <path d="M4352 5833 c-7 -3 -24 -16 -37 -29 -13 -13 -33 -24 -45 -24 -11 0 -20 -3 -20 -7 0 -5 -12 -14 -27 -20 -20 -10 -50 -10 -125 -2 -135 14 -193 -3 -269 -76 -10 -9 -18 -40 -22 -76 -3 -34 -10 -66 -16 -72 -6 -6 -11 -19 -11 -29 0 -10 -4 -18 -10 -18 -5 0 -10 -7 -10 -15 0 -17 -110 -128 -152 -152 -15 -10 -28 -21 -28 -25 0 -4 -22 -30 -50 -57 -27 -28 -50 -53 -50 -56 0 -4 -11 -21 -25 -39 -13 -17 -31 -59 -40 -91 -14 -55 -14 -64 2 -113 9 -30 22 -56 30 -59 7 -3 13 -11 13 -18 0 -7 3 -15 8 -17 9 -4 62 -111 62 -126 0 -7 7 -12 15 -12 11 0 15 -12 15 -50 0 -34 4 -50 13 -50 7 0 18 -9 24 -19 7 -11 32 -29 57 -42 26 -12 46 -26 46 -31 0 -4 12 -8 28 -8 15 0 48 -11 74 -25 26 -14 56 -25 66 -25 10 0 46 -11 80 -25 34 -14 68 -25 77 -25 8 0 39 -11 69 -25 30 -14 62 -25 71 -25 47 0 206 -137 233 -200 26 -63 112 -120 181 -120 41 0 91 -41 91 -76 0 -12 8 -24 18 -27 9 -4 29 -16 44 -29 23 -18 33 -20 55 -12 16 5 28 16 29 24 0 8 4 23 8 32 4 10 5 75 2 145 -18 376 -22 393 -73 393 -31 0 -79 25 -87 45 -10 27 -7 93 4 97 7 2 1 21 -12 46 -31 56 -21 62 113 62 63 0 109 4 116 11 6 6 41 14 77 16 37 3 69 10 72 15 3 4 19 -1 35 -12 36 -27 37 -17 2 25 -68 80 -206 265 -262 349 -19 28 -42 62 -51 76 -10 14 -28 46 -40 70 -12 24 -52 89 -89 143 -78 117 -77 116 -169 276 -40 69 -72 128 -72 133 0 9 -18 9 -38 1z"/>

          <path d="M6465 5306 c-99 -24 -245 -114 -245 -150 0 -8 -8 -39 -19 -68 -30 -86 -44 -189 -38 -280 8 -110 20 -147 68 -208 38 -48 42 -50 87 -50 27 0 57 7 68 15 10 8 29 15 41 15 12 0 28 7 37 15 20 21 61 35 101 35 19 0 36 4 39 9 3 4 24 11 45 15 26 4 44 13 52 27 10 19 18 21 87 18 43 -1 114 -2 160 -1 72 2 82 4 82 20 0 10 -29 76 -64 145 -76 150 -100 238 -88 315 l9 52 -41 0 c-23 0 -50 6 -61 13 -34 23 -202 77 -237 76 -18 0 -55 -6 -83 -13z"/>

          <path d="M7436 3021 c-4 -6 -4 -22 0 -36 8 -31 -6 -50 -60 -78 -36 -19 -55 -21 -158 -19 -115 3 -158 -6 -158 -33 0 -5 -19 -23 -41 -40 -22 -16 -59 -51 -81 -77 -22 -26 -61 -59 -86 -74 -44 -24 -53 -25 -129 -19 l-83 6 0 -35 c0 -19 4 -38 10 -41 5 -3 17 -32 25 -63 9 -31 23 -80 31 -109 9 -29 22 -82 30 -119 18 -90 36 -102 84 -55 20 20 52 43 71 52 106 50 139 59 164 44 11 -7 50 -16 86 -19 59 -6 69 -4 94 16 34 27 92 26 115 -2 27 -34 300 -110 393 -110 59 0 70 4 125 40 83 56 88 63 73 106 -10 27 -10 38 -1 49 20 24 8 68 -22 83 l-28 13 6 87 c8 113 -10 162 -57 162 -17 0 -42 -9 -57 -20 -23 -19 -27 -19 -41 -5 -12 12 -12 18 -3 27 15 15 16 64 2 73 -6 4 -8 10 -6 14 10 15 -35 51 -64 51 -38 0 -60 9 -60 26 0 26 -47 59 -162 112 -3 2 -9 -1 -12 -7z"/>

          <path d="M5120 7620 c-30 -11 -64 -19 -75 -20 -18 0 -48 -13 -177 -77 -27 -12 -57 -23 -67 -23 -11 0 -42 -11 -69 -25 -28 -14 -58 -25 -68 -25 -11 -1 -30 -7 -44 -15 -14 -8 -33 -14 -43 -15 -25 0 -167 -69 -167 -81 0 -5 -4 -9 -10 -9 -13 0 -238 -104 -280 -130 -8 -5 -49 -23 -90 -41 -41 -18 -80 -36 -86 -41 -6 -5 -57 -31 -112 -59 -56 -27 -110 -61 -121 -75 -19 -24 -19 -28 -4 -77 8 -29 28 -67 44 -85 16 -18 29 -39 29 -47 0 -8 3 -15 8 -15 4 0 12 -9 17 -19 6 -11 43 -68 83 -126 39 -59 72 -109 72 -111 0 -2 16 -26 35 -53 19 -26 35 -53 35 -59 0 -5 6 -12 13 -15 7 -2 21 -22 32 -43 11 -22 35 -57 53 -80 17 -23 32 -46 32 -53 0 -6 5 -11 10 -11 6 0 10 -5 10 -10 0 -6 19 -38 43 -73 48 -71 51 -76 109 -172 23 -38 54 -95 69 -125 21 -45 127 -231 157 -276 4 -7 37 -56 73 -111 37 -54 77 -119 89 -143 12 -24 30 -56 40 -70 9 -14 32 -48 51 -76 34 -51 126 -177 196 -268 21 -27 56 -67 78 -88 119 -114 212 -198 221 -198 5 0 21 -11 36 -25 15 -14 32 -25 37 -25 5 0 16 -8 23 -18 7 -9 25 -23 41 -29 15 -7 27 -17 27 -23 0 -5 9 -10 21 -10 11 0 34 -9 49 -20 16 -12 60 -29 97 -38 37 -10 77 -23 88 -29 18 -9 53 -14 220 -32 49 -5 62 -10 70 -28 10 -23 33 -33 80 -33 44 0 51 8 74 88 12 39 26 72 31 72 5 0 19 20 31 45 12 25 26 45 31 45 19 0 6 34 -32 81 -47 60 -59 97 -67 207 -6 86 8 196 33 265 21 58 33 117 23 117 -5 0 -9 15 -9 34 0 19 -9 62 -19 95 -14 44 -18 78 -14 120 3 32 2 101 -2 154 l-7 95 -84 -6 -85 -5 -47 50 c-31 34 -53 68 -64 104 -9 30 -37 107 -62 172 -25 65 -46 126 -46 135 0 9 -6 34 -14 57 -8 22 -24 83 -36 135 -12 52 -28 112 -36 133 -8 20 -14 50 -14 65 0 15 -10 63 -21 107 -12 44 -25 100 -28 125 -7 46 -50 184 -78 252 -9 20 -13 44 -10 52 4 9 0 22 -8 30 -8 8 -15 19 -15 25 0 6 -4 11 -10 11 -5 0 -10 5 -10 12 0 6 -11 26 -25 44 -14 18 -25 38 -25 45 0 7 -11 27 -25 45 -14 18 -25 38 -25 44 0 6 -22 44 -50 86 -27 41 -50 78 -50 81 0 2 -9 12 -21 22 -12 9 -31 41 -44 71 -27 64 -38 68 -115 40z"/>

          <path d="M8079 4843 c-13 -9 -28 -23 -32 -30 -4 -7 -14 -13 -20 -13 -7 0 -20 -8 -28 -17 -9 -10 -42 -34 -74 -53 -31 -19 -69 -45 -84 -57 -14 -13 -30 -23 -35 -23 -5 0 -4 -6 1 -12 5 -7 16 -33 23 -58 8 -25 19 -51 25 -58 23 -29 60 -62 71 -62 6 0 22 -9 35 -21 24 -20 24 -23 24 -204 0 -161 8 -228 22 -187 3 6 9 12 14 12 6 0 9 -33 7 -77 -3 -68 0 -80 19 -101 11 -13 37 -26 56 -29 29 -4 36 -2 41 15 4 11 23 30 43 42 41 24 94 21 121 -7 13 -12 29 -14 84 -8 38 3 88 13 111 22 67 24 210 63 234 63 12 0 41 -18 64 -40 39 -36 43 -44 43 -89 1 -27 4 -53 8 -57 8 -7 58 -12 156 -17 23 -1 42 -7 42 -13 0 -14 102 -54 136 -54 19 0 24 -5 24 -26 0 -24 3 -26 28 -19 56 14 92 17 92 8 0 -5 16 -15 35 -22 19 -7 35 -18 35 -26 0 -8 17 -16 43 -20 23 -4 70 -18 104 -31 34 -13 70 -24 80 -24 10 0 41 -12 68 -25 66 -33 130 -33 209 1 145 61 144 61 155 101 6 21 11 54 11 74 0 44 -25 109 -43 109 -6 0 -22 3 -33 6 -16 4 -33 -4 -62 -30 -35 -32 -45 -36 -93 -36 -36 0 -72 8 -107 25 -30 14 -59 25 -65 25 -7 0 -20 16 -29 36 -17 34 -17 36 2 73 11 22 25 41 32 43 7 3 13 22 13 46 0 35 -6 47 -33 72 -18 16 -42 30 -53 30 -11 0 -30 11 -43 25 -13 14 -28 25 -35 25 -6 0 -11 5 -11 10 0 6 -8 18 -19 29 -10 10 -39 50 -64 90 -26 39 -51 71 -56 71 -5 0 -12 9 -16 19 -8 27 -25 31 -153 42 -63 5 -126 15 -142 24 -16 8 -39 15 -51 15 -30 0 -104 48 -123 81 -9 15 -16 42 -16 59 0 32 33 98 56 112 22 14 2 57 -43 90 -25 18 -54 41 -64 51 -19 18 -24 16 -153 -47 -72 -37 -137 -66 -144 -66 -7 0 -12 -3 -12 -8 0 -4 -17 -16 -37 -27 -20 -11 -42 -25 -49 -32 -6 -7 -34 -25 -60 -41 -42 -24 -59 -28 -114 -26 -118 2 -120 5 -120 150 0 105 -10 124 -51 97z"/>

          <path d="M7190 4370 c-13 -11 -34 -20 -46 -20 -46 0 -134 -67 -214 -162 -27 -32 -34 -35 -58 -29 -39 12 -94 -9 -108 -39 -7 -14 -15 -45 -18 -70 -6 -44 -5 -47 26 -63 18 -9 56 -31 83 -47 28 -17 57 -33 67 -36 9 -3 18 -14 21 -24 3 -12 18 -21 43 -26 22 -3 46 -12 54 -19 23 -20 121 -85 129 -85 10 0 83 -71 112 -109 l27 -34 52 19 c31 11 55 26 58 37 2 9 11 17 18 17 8 0 14 6 14 13 0 17 75 51 99 44 20 -5 21 -1 21 71 -1 76 -1 78 -43 123 -23 26 -67 63 -97 82 -67 43 -100 73 -100 92 0 8 -6 29 -14 47 -8 18 -22 59 -31 91 -11 35 -26 65 -42 77 -19 14 -24 26 -21 45 6 30 -2 31 -32 5z"/>

          <path d="M5870 4235 c-14 -8 -37 -20 -52 -27 -16 -7 -28 -16 -28 -21 0 -8 -24 -36 -67 -81 -13 -13 -23 -28 -23 -34 0 -5 -9 -27 -20 -49 -11 -21 -35 -103 -53 -182 -26 -110 -39 -148 -53 -155 -10 -6 -22 -14 -25 -18 -3 -5 -68 -11 -145 -14 -86 -4 -145 -11 -154 -19 -8 -7 -34 -20 -57 -31 -24 -10 -43 -23 -43 -29 0 -15 -83 -52 -133 -61 -28 -5 -49 -1 -80 14 -23 11 -59 27 -79 36 -35 15 -38 19 -38 58 0 24 -4 49 -9 57 -6 10 -3 27 10 52 10 21 19 51 19 67 0 38 -35 82 -65 82 -13 0 -37 11 -53 25 -17 14 -35 25 -41 25 -6 0 -11 10 -11 22 0 12 -12 35 -27 50 -21 22 -36 28 -69 28 -39 0 -42 -2 -58 -43 -18 -48 -20 -94 -6 -152 7 -30 6 -58 -8 -114 -22 -96 -39 -108 -120 -92 -31 7 -88 16 -127 21 -38 5 -92 14 -120 20 -60 14 -176 5 -215 -15 -36 -18 -72 -62 -118 -141 -20 -35 -40 -64 -44 -64 -4 0 -8 -6 -8 -14 0 -8 -6 -21 -13 -28 -75 -77 -103 -181 -73 -266 14 -40 14 -48 -9 -138 -21 -83 -23 -103 -14 -148 6 -28 21 -67 33 -86 11 -19 26 -48 31 -64 7 -20 25 -37 55 -53 47 -25 94 -26 280 -7 47 5 60 2 90 -18 19 -13 43 -27 53 -31 9 -3 17 -13 17 -21 0 -8 6 -19 13 -23 6 -4 35 -38 63 -75 28 -38 70 -82 93 -98 l41 -30 71 14 c43 10 82 25 102 41 18 14 37 29 43 34 6 5 30 21 54 36 24 15 48 32 54 37 50 42 124 89 154 97 20 6 78 13 127 17 98 7 115 15 115 50 0 17 7 25 25 30 14 3 25 11 25 18 1 23 46 63 95 85 45 20 234 110 278 132 9 5 25 13 35 18 9 5 49 23 87 41 39 18 77 36 85 41 86 52 191 82 259 75 152 -17 286 -47 442 -102 53 -19 106 -34 117 -34 11 0 23 -4 27 -9 3 -5 38 -19 78 -32 39 -12 77 -25 82 -29 30 -21 136 -29 347 -25 201 4 232 6 266 24 55 28 64 42 56 90 -6 36 -10 41 -39 47 -47 8 -126 73 -153 124 -16 30 -27 76 -34 135 -6 50 -22 124 -35 165 -22 63 -34 83 -83 130 -73 71 -106 100 -114 100 -9 0 -170 123 -179 137 -4 7 -14 13 -22 13 -8 0 -18 6 -22 13 -4 7 -39 35 -78 62 -38 27 -75 54 -82 60 -6 5 -41 32 -77 59 -36 27 -66 52 -66 57 0 4 -16 13 -35 19 -19 6 -35 16 -35 21 0 5 -11 9 -25 9 -14 0 -33 4 -43 9 -9 5 -48 22 -87 37 -38 15 -75 33 -81 41 -17 19 -240 18 -274 -2z"/>

          <path d="M7900 3165 c-7 -8 -33 -17 -59 -21 -46 -6 -48 -7 -59 -51 -7 -25 -31 -66 -53 -93 -36 -43 -39 -51 -32 -81 15 -58 92 -82 237 -72 57 4 92 11 100 20 6 8 18 22 27 31 34 37 59 94 59 134 0 68 -18 104 -65 127 -50 25 -136 29 -155 6z"/>

          <path d="M5425 2190 c-154 -18 -159 -19 -233 -52 -34 -15 -47 -28 -61 -61 -22 -51 -56 -69 -161 -86 -188 -31 -366 -64 -387 -72 -25 -9 -53 -57 -53 -91 0 -13 9 -47 20 -76 24 -63 26 -110 4 -119 -8 -3 -50 4 -92 16 -84 25 -127 57 -137 101 -3 16 -15 36 -25 45 -14 13 -18 25 -13 49 6 27 5 30 -10 18 -13 -11 -17 -10 -25 3 -7 14 -26 17 -98 19 -79 1 -95 -2 -144 -27 -68 -34 -108 -81 -118 -139 -8 -42 -36 -79 -100 -128 -15 -12 -44 -37 -64 -56 -20 -19 -41 -34 -46 -34 -5 0 -19 -11 -32 -25 -13 -14 -26 -25 -30 -25 -4 0 -46 -39 -94 -86 -83 -82 -86 -87 -80 -121 4 -19 12 -36 18 -38 6 -1 38 -9 71 -16 33 -7 68 -16 78 -21 10 -5 39 -13 65 -17 26 -5 90 -20 142 -35 52 -15 129 -36 170 -47 176 -48 211 -62 241 -96 16 -19 29 -39 29 -46 1 -23 55 -75 87 -81 52 -12 60 -30 32 -74 -37 -57 -62 -137 -56 -180 20 -140 56 -222 115 -262 l37 -25 589 -3 589 -3 -6 31 c-4 17 -3 39 2 48 5 9 14 37 21 62 6 25 20 72 31 105 30 94 41 162 43 270 2 87 6 107 30 154 15 30 45 75 66 100 21 25 41 55 44 67 19 62 161 137 311 164 55 10 103 16 108 13 4 -2 40 1 78 8 55 10 75 10 90 1 16 -10 26 -8 57 12 32 20 41 33 55 85 9 33 17 69 17 78 0 10 9 41 19 68 30 79 36 138 17 176 -19 38 -21 66 -3 72 12 4 14 90 2 127 -16 52 -117 73 -224 48 -63 -14 -172 8 -277 58 -67 32 -147 46 -156 27 -6 -15 -70 -43 -98 -43 -53 0 -170 98 -170 142 0 35 -98 41 -285 18z"/>

          <path d="M10385 8978 c3 -13 11 -43 16 -68 5 -25 15 -63 23 -85 8 -22 20 -59 26 -82 6 -24 15 -43 20 -43 6 0 10 -6 10 -13 0 -7 17 -23 38 -34 65 -37 115 -107 128 -180 4 -21 10 -42 13 -48 4 -5 13 -28 20 -50 20 -60 50 -123 61 -130 5 -3 10 -14 10 -24 0 -10 11 -30 24 -44 14 -15 33 -40 42 -57 10 -16 22 -30 26 -30 4 0 8 -9 8 -20 0 -11 4 -20 9 -20 5 0 13 -10 17 -22 4 -13 9 -25 13 -28 3 -3 19 -30 34 -61 22 -44 29 -71 30 -127 2 -62 -1 -74 -21 -94 -19 -20 -36 -23 -145 -30 -122 -7 -173 -14 -192 -28 -5 -4 -22 -10 -37 -14 -41 -9 -99 -75 -142 -159 -22 -43 -45 -82 -53 -88 -7 -6 -13 -18 -13 -26 0 -20 -103 -209 -121 -223 -4 -3 -23 -28 -42 -55 -26 -39 -38 -72 -52 -140 -16 -83 -16 -102 -2 -240 11 -107 22 -169 40 -215 30 -79 57 -167 57 -187 0 -17 -59 -127 -71 -131 -5 -2 -9 -7 -9 -12 0 -5 -19 -28 -43 -52 -23 -24 -54 -59 -68 -78 -15 -19 -52 -62 -83 -95 -31 -33 -58 -68 -62 -77 -3 -10 -12 -18 -20 -18 -8 0 -18 -8 -21 -17 -4 -10 -17 -31 -30 -46 -27 -34 -31 -93 -8 -141 19 -41 81 -72 172 -87 37 -6 110 -19 161 -30 165 -34 236 -23 278 42 13 21 24 47 24 57 0 22 38 81 62 96 21 13 61 -21 78 -67 21 -55 41 -101 50 -119 6 -10 10 -29 10 -42 0 -14 11 -60 24 -103 13 -43 29 -110 35 -150 19 -124 53 -163 142 -163 49 0 127 23 179 53 71 41 151 142 170 215 5 20 14 55 19 77 28 107 2 296 -49 367 -11 15 -20 31 -20 35 -1 11 -58 73 -68 73 -5 0 -17 9 -27 20 -10 11 -27 22 -39 26 -50 15 -127 57 -136 74 -14 27 -13 50 9 118 31 97 65 139 143 178 37 19 77 34 88 34 11 0 52 11 92 24 99 32 265 56 533 76 194 15 318 57 360 122 70 109 145 184 202 201 46 14 175 12 218 -3 29 -10 105 -14 270 -15 248 -2 319 -13 369 -56 14 -12 28 -35 31 -50 4 -16 12 -35 19 -42 6 -6 24 -33 39 -59 15 -27 32 -48 37 -48 6 0 10 -5 10 -11 0 -16 81 -139 91 -139 5 0 9 -6 9 -13 0 -15 71 -87 85 -87 6 -1 25 -20 44 -44 19 -24 57 -61 84 -83 113 -87 109 -83 102 -122 -8 -43 -33 -93 -51 -104 -8 -4 -14 -14 -14 -21 0 -8 -6 -19 -14 -25 -18 -15 -28 -69 -20 -109 13 -65 128 -95 211 -55 41 19 108 85 130 128 9 17 19 32 23 35 7 5 23 34 53 95 8 17 27 68 42 115 15 47 33 101 41 120 7 19 18 53 25 75 6 22 22 70 34 106 29 81 39 148 31 193 -9 45 -43 62 -161 83 -99 17 -174 49 -222 93 -38 35 -35 57 12 87 45 30 98 41 167 35 70 -5 114 9 162 53 l38 35 -5 87 c-13 251 -22 279 -95 315 -38 18 -55 20 -120 14 -81 -7 -136 -33 -197 -96 -116 -120 -125 -123 -365 -141 -226 -17 -251 -17 -261 1 -51 90 -73 185 -45 196 8 3 45 -4 83 -16 37 -12 104 -24 148 -27 71 -5 84 -3 118 17 20 12 37 26 37 31 0 14 61 72 90 86 29 15 163 43 202 43 15 0 30 5 33 10 3 6 14 10 25 10 10 0 47 13 83 29 l64 29 25 83 c36 119 53 317 37 435 -14 104 -40 152 -137 253 -34 35 -62 67 -62 71 0 10 -13 23 -69 69 -22 19 -41 41 -41 48 0 7 -6 13 -13 13 -8 0 -24 11 -37 25 -13 14 -29 25 -36 25 -6 0 -14 6 -17 14 -6 15 -110 86 -127 86 -5 0 -13 6 -17 14 -11 20 -110 86 -128 86 -14 0 -63 26 -75 40 -3 3 -30 19 -60 34 -30 16 -68 39 -83 52 -16 13 -34 24 -41 24 -7 0 -19 11 -26 25 -7 14 -17 25 -22 25 -5 0 -13 11 -18 25 l-10 25 -1331 0 -1331 0 7 -22z"/>

          <path d="M2803 8820 c-35 -17 -63 -34 -63 -39 0 -5 -19 -29 -42 -53 -44 -45 -50 -52 -83 -107 -11 -19 -40 -59 -65 -90 -25 -31 -53 -72 -62 -91 -29 -57 -115 -182 -130 -188 -4 -2 -8 -10 -8 -18 0 -42 -111 -171 -183 -211 -33 -18 -119 -15 -179 6 -99 35 -246 71 -289 71 -19 0 -58 -12 -88 -27 -46 -24 -57 -36 -82 -87 -16 -33 -29 -63 -29 -68 0 -5 -11 -26 -25 -46 -14 -20 -25 -45 -25 -55 0 -10 -11 -43 -25 -73 -14 -30 -25 -62 -25 -70 0 -29 -67 -109 -126 -149 -81 -56 -152 -69 -254 -45 -41 10 -93 21 -115 25 -22 4 -44 10 -50 15 -13 10 -101 27 -182 36 l-63 7 0 -1094 0 -1094 44 -24 c25 -12 47 -29 50 -37 3 -8 10 -14 16 -14 5 0 41 -22 80 -50 39 -27 72 -50 74 -50 2 0 32 -19 66 -42 34 -24 69 -48 78 -53 65 -40 132 -86 137 -95 3 -5 15 -10 26 -10 10 0 19 -4 19 -10 0 -5 18 -19 39 -29 21 -11 45 -27 53 -34 8 -8 40 -27 72 -42 57 -27 62 -28 185 -22 134 6 187 -2 261 -36 25 -12 52 -24 60 -27 22 -7 128 -78 135 -90 3 -5 15 -10 26 -10 10 0 19 -4 19 -9 0 -5 24 -23 53 -40 28 -17 61 -37 72 -44 61 -38 96 -57 110 -57 8 0 15 -6 15 -14 0 -15 49 -36 86 -36 15 0 24 6 24 15 0 8 9 23 20 32 24 21 26 75 5 126 -8 20 -12 44 -9 54 22 67 48 80 123 64 80 -17 227 -41 253 -41 14 0 38 -7 54 -15 17 -8 61 -21 99 -29 39 -8 85 -22 104 -32 18 -9 54 -19 80 -21 25 -3 67 -15 92 -29 26 -13 61 -24 78 -24 18 0 44 -6 59 -14 15 -7 46 -16 70 -20 35 -5 48 -3 69 14 14 11 32 20 39 20 10 0 14 14 14 50 0 38 -4 50 -15 50 -8 0 -15 5 -15 12 0 15 -53 122 -62 126 -5 2 -8 10 -8 17 0 7 -6 15 -13 18 -8 3 -21 29 -30 59 -16 49 -16 58 -2 113 9 32 27 74 40 91 14 18 25 35 25 39 0 3 23 28 50 56 28 27 50 53 50 57 0 4 13 15 28 25 42 24 152 135 152 152 0 8 5 15 10 15 6 0 10 8 10 18 0 10 5 23 11 29 6 6 13 38 16 72 4 36 12 67 22 76 76 73 134 90 269 76 75 -8 105 -8 125 2 15 6 27 15 27 20 0 4 9 7 20 7 12 0 32 11 45 24 13 14 34 27 45 31 11 3 20 10 20 14 0 5 -20 42 -45 82 -25 41 -51 83 -58 94 -7 11 -31 48 -54 82 -24 35 -43 67 -43 73 0 5 -4 10 -10 10 -5 0 -10 5 -10 11 0 7 -15 30 -32 53 -18 23 -42 58 -53 80 -11 21 -25 41 -32 43 -7 3 -13 10 -13 15 0 6 -16 33 -35 59 -19 27 -35 51 -35 53 0 2 -33 52 -72 111 -40 58 -77 115 -83 126 -5 10 -13 19 -17 19 -5 0 -8 7 -8 15 0 8 -13 29 -29 47 -16 18 -36 56 -44 85 -15 49 -15 53 4 77 11 14 65 48 121 75 55 28 106 54 112 59 6 5 45 23 86 41 41 18 82 36 90 41 40 25 267 130 279 130 19 0 17 27 -5 72 -13 26 -28 49 -34 53 -5 3 -10 15 -10 26 0 10 -4 19 -8 19 -5 0 -19 23 -32 50 -13 28 -27 50 -31 50 -4 0 -17 19 -29 43 -29 57 -52 96 -74 130 -19 28 -29 46 -75 129 -13 23 -27 45 -30 48 -4 3 -18 25 -31 50 -30 59 -44 83 -85 150 -19 30 -46 75 -60 100 -14 25 -39 68 -55 95 -17 28 -36 61 -42 75 -7 14 -21 34 -30 44 -10 11 -18 25 -18 32 0 7 -11 26 -25 42 -14 17 -25 36 -25 43 0 7 -6 20 -14 28 -8 9 -25 36 -39 61 -68 127 -66 126 -227 134 -63 3 -167 15 -230 26 -68 12 -158 20 -220 19 -95 0 -111 -3 -167 -29z"/>

          <path d="M9470 7783 c-22 -10 -78 -17 -152 -21 l-117 -5 -25 -69 c-14 -38 -26 -79 -26 -92 0 -12 -7 -42 -15 -67 -8 -24 -22 -80 -30 -124 -9 -44 -20 -100 -25 -125 -6 -25 -13 -64 -16 -86 l-6 -41 -29 14 c-16 8 -29 19 -29 24 0 5 -6 9 -14 9 -8 0 -18 9 -21 20 -4 11 -20 27 -36 35 -16 9 -29 22 -29 29 0 15 -143 84 -205 99 -78 18 -168 19 -235 2 -36 -10 -126 -21 -200 -27 -134 -9 -210 -23 -210 -40 0 -13 -58 -35 -127 -49 -61 -11 -64 -14 -118 -80 -30 -38 -55 -74 -55 -79 0 -6 -9 -10 -19 -10 -11 0 -22 -9 -26 -19 -3 -11 -17 -26 -30 -35 -14 -9 -25 -22 -25 -30 0 -7 -11 -19 -25 -26 -30 -16 -40 -60 -31 -133 4 -29 9 -70 12 -92 3 -22 9 -49 14 -60 5 -11 14 -38 21 -60 11 -37 61 -94 84 -95 6 0 24 -17 40 -38 27 -33 30 -44 29 -103 0 -36 -7 -88 -15 -115 -21 -74 -20 -417 3 -504 9 -36 24 -104 33 -152 21 -105 29 -115 88 -100 63 17 194 20 171 4 -12 -9 -39 -195 -30 -217 3 -8 17 -20 31 -25 21 -8 26 -16 23 -38 -2 -21 -13 -32 -50 -50 -38 -18 -48 -27 -48 -47 0 -30 32 -65 59 -65 11 0 29 -14 41 -30 18 -25 20 -36 12 -58 -16 -45 -15 -147 3 -162 11 -9 15 -34 15 -104 0 -145 2 -148 120 -150 55 -2 72 2 114 26 26 16 54 34 60 41 7 7 29 21 49 32 20 11 37 23 37 27 0 5 5 8 12 8 7 0 72 29 144 66 129 63 134 65 153 47 10 -10 40 -33 65 -52 25 -18 46 -41 46 -50 0 -34 148 -59 167 -28 12 19 60 37 101 37 55 1 181 41 227 73 25 17 53 27 75 27 64 0 113 20 154 64 37 40 38 42 33 101 -3 35 -16 81 -31 110 -14 28 -26 56 -26 63 0 6 -4 12 -9 12 -6 0 -16 12 -23 28 -13 26 -16 27 -78 24 -77 -4 -212 -46 -256 -79 -87 -65 -90 16 -4 97 51 47 81 153 74 255 -8 109 -10 113 -48 120 -43 9 -72 -17 -85 -76 -5 -22 -11 -42 -13 -44 -7 -8 -78 8 -78 16 0 5 -9 9 -20 9 -15 0 -20 7 -20 28 0 21 13 42 47 75 47 47 48 47 116 47 52 0 76 -5 96 -19 15 -11 44 -22 65 -26 35 -7 46 -4 105 24 19 9 51 99 51 144 0 30 -7 44 -31 67 l-32 28 21 34 c12 19 49 61 84 94 65 63 127 89 151 65 6 -6 42 -11 80 -11 62 0 71 3 89 25 11 14 26 25 34 25 7 0 27 19 44 43 16 23 37 49 46 59 29 30 20 202 -14 258 -33 54 -29 108 13 174 35 55 44 103 24 123 -8 8 -8 22 0 49 15 54 14 90 -5 127 -22 42 -18 40 -66 46 -33 5 -47 13 -63 37 -18 29 -48 47 -159 100 -72 35 -126 104 -81 104 8 0 15 4 15 9 0 5 22 42 50 83 61 90 64 124 18 218 -34 72 -107 167 -144 190 -13 8 -24 18 -24 22 0 14 -94 7 -130 -9z"/>

          <path d="M6641 7489 c-34 -167 -40 -210 -41 -297 0 -90 -1 -93 -25 -102 -18 -7 -32 -6 -47 3 -37 21 -88 76 -88 94 0 10 -7 32 -16 48 -8 17 -19 48 -24 70 -4 22 -18 69 -31 105 -12 36 -24 71 -25 78 -5 21 -50 13 -78 -13 -15 -14 -31 -25 -35 -25 -4 0 -17 -10 -29 -22 -12 -13 -50 -36 -86 -53 -68 -31 -74 -42 -57 -88 10 -26 -13 -126 -32 -138 -13 -9 -2 -77 18 -115 8 -16 15 -34 15 -39 0 -19 -114 -48 -161 -41 -54 9 -99 25 -99 37 0 5 -15 9 -34 9 -26 0 -40 7 -56 27 -19 25 -28 28 -83 28 -34 1 -68 4 -75 9 -16 10 -16 -15 2 -56 25 -59 70 -202 77 -248 3 -25 16 -81 28 -125 11 -44 21 -92 21 -107 0 -15 6 -45 14 -65 8 -21 24 -81 36 -133 12 -52 28 -113 36 -135 8 -23 14 -48 14 -57 0 -9 21 -70 46 -135 25 -65 53 -142 62 -172 11 -36 33 -70 64 -104 l47 -50 85 5 84 6 7 -95 c4 -53 5 -122 2 -154 -4 -42 0 -76 14 -120 10 -33 19 -76 19 -94 0 -34 26 -57 36 -31 10 26 178 105 252 118 69 12 73 11 169 -22 54 -18 107 -39 118 -47 11 -7 38 -13 61 -13 40 0 42 1 48 38 26 144 155 456 203 488 38 26 81 44 104 44 24 0 38 49 17 61 -8 4 -27 26 -42 48 -26 38 -28 45 -21 108 5 57 3 75 -14 113 -11 25 -21 59 -21 77 0 35 -17 80 -38 102 -22 23 -32 59 -32 115 0 43 -4 56 -25 74 -14 12 -25 30 -25 40 0 30 35 55 67 49 28 -5 124 10 133 22 3 3 23 15 45 26 42 21 133 81 150 99 6 6 18 16 26 21 67 42 99 67 99 75 0 5 11 12 25 16 19 5 25 13 25 34 0 26 -3 27 -61 34 -34 3 -75 13 -92 21 -17 8 -35 15 -41 15 -24 1 -73 59 -106 125 -19 39 -37 72 -41 75 -3 3 -19 25 -34 50 -34 53 -40 59 -86 88 -27 17 -45 42 -78 111 -40 85 -45 91 -79 97 -21 4 -57 16 -82 27 -28 12 -78 21 -130 24 l-86 6 -13 -64z"/>

          <path d="M5036 4772 c-3 -5 -35 -12 -72 -15 -36 -2 -71 -10 -77 -16 -7 -7 -53 -11 -116 -11 -134 0 -144 -6 -113 -62 13 -25 19 -44 12 -46 -11 -4 -14 -70 -4 -97 8 -20 56 -45 87 -45 52 0 55 -21 73 -398 4 -95 3 -137 -6 -147 -6 -8 -9 -19 -5 -25 3 -5 -1 -13 -9 -16 -16 -6 -10 -17 47 -83 20 -24 46 -85 47 -108 0 -13 -10 -29 -25 -39 -17 -11 -25 -25 -25 -45 0 -65 87 -101 193 -78 34 7 66 16 72 21 50 40 122 88 135 90 8 1 65 2 125 3 124 1 157 12 191 62 12 18 24 51 28 74 7 43 30 126 46 164 5 11 11 43 14 70 8 73 25 125 41 125 8 0 18 6 22 13 4 7 26 26 48 43 37 29 104 50 223 71 33 5 42 23 20 40 -7 6 -44 13 -83 17 -137 14 -190 22 -210 33 -11 6 -49 19 -84 28 -35 9 -77 25 -92 36 -15 10 -37 19 -48 19 -12 0 -21 5 -21 10 0 6 -12 16 -27 23 -16 6 -34 20 -41 29 -7 10 -18 18 -23 18 -5 0 -22 11 -37 25 -15 14 -31 25 -37 25 -6 0 -42 32 -80 71 -62 63 -125 110 -125 94 0 -4 -13 3 -29 15 -16 11 -32 16 -35 12z"/>

          <path d="M7754 4625 c-21 -13 -48 -25 -59 -25 -11 0 -38 -12 -60 -25 -22 -14 -47 -25 -56 -25 -19 0 -276 -127 -284 -141 -4 -5 -16 -9 -29 -9 -48 0 -62 -50 -22 -81 15 -11 31 -42 41 -76 9 -32 23 -73 31 -91 8 -18 14 -39 14 -47 0 -19 33 -49 100 -92 30 -19 72 -55 93 -79 33 -38 44 -44 75 -43 21 0 73 -8 117 -20 49 -12 113 -20 164 -21 83 0 84 0 117 35 32 32 34 38 34 105 0 63 -11 91 -23 58 -14 -41 -22 26 -22 187 0 181 0 184 -24 204 -13 12 -29 21 -35 21 -10 0 -47 32 -72 62 -6 7 -17 35 -25 61 -19 66 -28 71 -75 42z"/>

          <path d="M6502 4619 c-13 -5 -30 -16 -38 -24 -9 -8 -25 -15 -37 -15 -12 0 -31 -7 -41 -15 -11 -9 -41 -15 -68 -15 -36 0 -48 -4 -48 -15 0 -8 -4 -15 -8 -15 -5 0 -19 -20 -31 -45 -12 -25 -26 -45 -31 -45 -11 0 -52 -133 -54 -173 -1 -26 5 -31 74 -58 41 -17 83 -35 92 -40 10 -5 29 -9 42 -9 13 0 26 -5 28 -12 2 -6 25 -13 51 -14 51 -3 117 -23 180 -56 104 -52 119 -59 123 -56 2 3 8 29 14 59 10 56 36 89 71 89 45 0 5 155 -56 215 -17 17 -48 43 -68 60 -20 16 -42 43 -48 60 -6 16 -20 49 -30 72 -11 24 -19 47 -19 53 0 12 -67 12 -98 -1z"/>

          <path d="M7483 3722 c-18 -9 -33 -23 -33 -29 0 -7 -6 -13 -14 -13 -7 0 -16 -8 -18 -18 -3 -11 -26 -25 -60 -36 l-54 -19 -18 -103 c-12 -65 -16 -119 -12 -146 25 -157 59 -228 133 -277 25 -17 52 -31 59 -31 7 0 34 -11 60 -25 26 -14 56 -25 67 -25 10 0 35 -13 54 -30 l34 -30 44 54 c24 30 50 76 58 103 14 46 14 50 -4 61 -36 22 -46 117 -33 317 4 77 2 97 -15 138 -23 52 -61 81 -121 91 -21 3 -40 13 -44 21 -7 19 -42 18 -83 -3z"/>

          <path d="M9819 3300 c-25 -4 -56 -13 -67 -19 -55 -28 -63 -31 -77 -31 -9 0 -51 -11 -93 -24 -42 -13 -99 -27 -125 -31 -27 -4 -67 -13 -90 -21 -23 -9 -73 -19 -112 -24 -65 -9 -109 -18 -240 -52 -28 -7 -61 -24 -74 -37 -23 -23 -23 -28 -17 -113 6 -74 4 -95 -9 -114 -17 -27 -35 -24 -35 6 0 24 -29 40 -70 40 -17 0 -40 8 -51 19 -27 25 -69 32 -114 20 -21 -6 -99 -12 -174 -13 -108 -1 -143 -5 -168 -19 -42 -22 -133 -112 -161 -158 -28 -47 -29 -112 -2 -146 28 -36 26 -78 -7 -106 -53 -44 -62 -57 -73 -99 -12 -41 -39 -78 -59 -78 -5 0 -9 -20 -9 -45 0 -39 3 -47 26 -59 28 -15 46 -33 73 -76 9 -14 43 -39 75 -54 33 -16 67 -36 76 -44 21 -17 73 -10 99 14 11 10 27 14 41 11 122 -31 139 -41 187 -108 14 -19 50 -59 80 -89 90 -89 101 -110 101 -194 0 -40 -5 -87 -11 -103 -8 -23 -7 -43 4 -79 12 -45 18 -51 73 -79 54 -26 68 -29 161 -30 l102 0 35 -40 c19 -22 35 -45 36 -51 0 -12 33 -37 80 -62 14 -7 51 -15 84 -17 63 -4 78 3 155 72 43 40 75 42 121 8 28 -21 45 -25 100 -25 76 0 110 17 110 57 0 14 12 47 26 73 31 57 31 119 -1 135 -42 22 -75 48 -75 59 0 7 -20 27 -44 44 -44 32 -44 33 -30 60 7 15 14 50 14 78 0 41 -5 55 -26 75 -31 29 -86 31 -264 11 -103 -12 -122 -12 -172 3 -71 20 -90 40 -61 63 42 34 41 110 -1 130 -14 6 -26 22 -30 42 l-6 32 -57 -7 c-32 -4 -63 -11 -68 -15 -15 -12 -47 16 -43 37 2 13 17 20 58 26 59 8 100 29 100 51 0 15 58 46 85 46 9 0 24 4 34 9 9 5 22 7 28 3 14 -9 25 -79 27 -182 3 -125 3 -127 39 -154 32 -25 36 -25 117 -16 103 12 114 21 105 86 -8 58 -19 75 -65 101 l-35 20 4 133 c2 87 9 152 20 185 16 49 17 50 56 49 22 -1 58 -8 80 -17 23 -9 71 -16 113 -17 62 0 78 4 112 26 34 23 51 27 117 27 68 0 84 -3 120 -26 24 -15 47 -27 53 -27 12 0 47 -19 71 -38 10 -7 42 -16 72 -19 46 -5 61 -2 91 17 20 12 36 26 36 31 0 5 6 9 14 9 8 0 24 14 36 30 19 27 22 41 19 115 -4 75 -7 88 -36 129 -18 26 -33 50 -33 54 0 5 -16 24 -36 43 -34 33 -36 34 -122 34 -75 0 -95 -4 -144 -28 l-57 -28 -43 19 c-24 11 -52 27 -63 35 -18 14 -19 17 -4 34 9 10 19 36 22 59 4 22 25 89 47 148 22 60 40 118 40 130 0 12 -11 33 -24 49 -20 24 -33 28 -87 32 -35 2 -85 0 -110 -5z"/>

          <path d="M5905 3106 c-41 -14 -118 -48 -145 -65 -8 -5 -46 -23 -85 -41 -38 -18 -79 -37 -90 -43 -48 -25 -251 -122 -310 -148 -49 -22 -94 -62 -95 -85 0 -7 -11 -15 -25 -18 -18 -5 -25 -13 -25 -30 0 -35 -17 -43 -115 -50 -49 -4 -107 -11 -127 -17 -30 -8 -104 -55 -154 -97 -6 -5 -30 -22 -54 -37 -24 -15 -48 -31 -54 -36 -75 -60 -73 -59 -190 -84 -15 -3 -26 -8 -23 -11 3 -3 -1 -21 -9 -39 -14 -33 -47 -181 -59 -265 -4 -25 -16 -65 -26 -90 -10 -25 -23 -65 -28 -90 -9 -38 -7 -48 8 -65 10 -11 22 -31 26 -45 14 -48 53 -77 135 -100 44 -12 86 -20 95 -17 21 9 19 56 -5 119 -11 29 -20 63 -20 76 0 34 28 82 53 91 21 8 199 41 387 72 105 17 139 35 161 86 17 41 37 55 124 88 35 13 349 45 385 39 59 -10 70 -15 70 -31 0 -45 117 -143 170 -143 28 0 92 28 98 43 9 19 89 5 159 -29 41 -19 77 -33 81 -30 3 3 -1 7 -9 8 -8 1 42 5 111 8 279 16 341 33 425 120 37 38 39 42 22 54 -10 8 -23 41 -31 80 -8 37 -21 90 -30 119 -8 29 -22 78 -31 109 -8 31 -20 60 -25 63 -6 3 -10 22 -10 41 l0 35 83 -6 c76 -6 85 -5 129 19 25 15 64 48 86 74 22 26 59 61 81 77 22 17 41 34 41 39 0 5 8 15 18 22 14 12 3 13 -80 7 -92 -6 -206 8 -233 27 -5 4 -43 17 -82 29 -40 13 -75 27 -78 32 -4 5 -16 9 -27 9 -11 0 -64 15 -117 34 -235 82 -469 121 -556 92z"/>

          <path d="M6398 1324 c-3 -3 -40 -7 -81 -10 -205 -11 -408 -95 -433 -178 -3 -12 -23 -42 -44 -67 -21 -25 -51 -70 -66 -100 -24 -47 -28 -67 -30 -154 -2 -108 -13 -176 -43 -270 -11 -33 -25 -80 -31 -105 -7 -25 -16 -53 -21 -63 -5 -9 -7 -28 -3 -41 5 -19 14 -25 52 -29 57 -7 84 8 111 61 31 61 48 71 106 62 47 -7 77 -16 150 -45 43 -17 83 -31 135 -46 25 -7 54 -19 65 -26 11 -7 27 -13 37 -13 10 0 39 -11 65 -24 77 -39 178 -76 208 -76 8 0 70 -23 137 -50 67 -28 128 -50 135 -50 7 0 34 -11 60 -24 27 -14 74 -36 105 -50 l57 -26 447 0 447 0 -7 38 c-3 20 -9 123 -12 227 -4 105 -10 199 -14 210 -8 22 -75 60 -125 71 -16 4 -54 18 -84 30 -29 13 -63 24 -74 24 -11 0 -54 11 -96 24 -76 24 -153 46 -243 69 -47 12 -114 68 -188 157 -14 17 -35 40 -47 52 -13 12 -23 28 -23 35 0 7 -4 13 -9 13 -5 0 -35 33 -67 74 -32 40 -74 84 -94 97 -63 42 -143 79 -170 79 -29 0 -193 80 -225 110 -20 19 -74 27 -87 14z"/>
        </g>
      </svg>